<?xml version="1.0" encoding="utf-8"?>
<!-- Generator: Adobe Illustrator 16.0.0, SVG Export Plug-In . SVG Version: 6.00 Build 0)  -->
<!DOCTYPE svg PUBLIC "-//W3C//DTD SVG 1.1//EN" "http://www.w3.org/Graphics/SVG/1.1/DTD/svg11.dtd">
<svg version="1.1" id="Слой_1" xmlns="http://www.w3.org/2000/svg" xmlns:xlink="http://www.w3.org/1999/xlink" x="0px" y="0px"
	 width="72px" height="60px" viewBox="0 0 72 60" enable-background="new 0 0 72 60" xml:space="preserve">
<g transform="translate(1 1)">
	<g>
		<path fill="#4CB2DB" d="M61.833,20.834h-36.51c0.221-0.497,0.344-1.049,0.344-1.634v-1.4c0-2.216-1.751-3.966-3.967-3.966h-8.4
			c-2.216,0-3.967,1.75-3.967,3.966v1.4c0,0.584,0.124,1.137,0.344,1.634H7v-17.5C7,2.05,5.95,1,4.667,1H2.334
			C1.05,1,0,2.05,0,3.334V22v32.667C0,55.949,1.05,57,2.334,57h2.333C5.95,57,7,55.949,7,54.668V39.5h10.5H63v15.168
			C63,55.949,64.05,57,65.333,57h2.333C68.95,57,70,55.949,70,54.668V29C70,24.45,66.383,20.834,61.833,20.834z M11.667,19.2v-1.4
			c0-0.933,0.7-1.633,1.633-1.633h8.4c0.933,0,1.633,0.7,1.633,1.633v1.4c0,0.933-0.7,1.634-1.633,1.634h-4.2h-4.2
			C12.368,20.834,11.667,20.133,11.667,19.2z M2.334,3.334h2.333v17.5H2.334V3.334z M5.833,37.168c-0.701,0-1.167,0.465-1.167,1.166
			v16.334H2.334V23.167h3.499H13.3h3.033v14.001H5.833z M67.666,54.668h-2.333V38.334c0-0.701-0.466-1.166-1.167-1.166H18.667
			V23.167H21.7h40.133c3.268,0,5.833,2.567,5.833,5.833V54.668L67.666,54.668z"/>
	</g>
</g>
</svg>
