<?xml version="1.0" encoding="utf-8"?>
<!-- Generator: Adobe Illustrator 16.0.0, SVG Export Plug-In . SVG Version: 6.00 Build 0)  -->
<!DOCTYPE svg PUBLIC "-//W3C//DTD SVG 1.1//EN" "http://www.w3.org/Graphics/SVG/1.1/DTD/svg11.dtd" [
	<!ENTITY ns_flows "http://ns.adobe.com/Flows/1.0/">
	<!ENTITY ns_extend "http://ns.adobe.com/Extensibility/1.0/">
	<!ENTITY ns_ai "http://ns.adobe.com/AdobeIllustrator/10.0/">
	<!ENTITY ns_graphs "http://ns.adobe.com/Graphs/1.0/">
]>
<svg version="1.1" id="Слой_1" xmlns:x="&ns_extend;" xmlns:i="&ns_ai;" xmlns:graph="&ns_graphs;"
	 xmlns="http://www.w3.org/2000/svg" xmlns:xlink="http://www.w3.org/1999/xlink" xmlns:a="http://ns.adobe.com/AdobeSVGViewerExtensions/3.0/"
	 x="0px" y="0px" width="174px" height="13px" viewBox="0 0 174 13" enable-background="new 0 0 174 13" xml:space="preserve">
<g>
	<path fill="#4F5D6E" d="M4.623,10.384c0.201,0,0.394-0.016,0.581-0.045s0.335-0.061,0.444-0.092v0.867
		c-0.123,0.061-0.304,0.109-0.543,0.146C4.866,11.3,4.65,11.319,4.459,11.319c-1.449,0-2.174-0.764-2.174-2.289V4.572H1.212V4.025
		l1.073-0.472l0.479-1.6H3.42V3.69h2.174v0.882H3.42v4.409c0,0.451,0.107,0.799,0.321,1.039C3.956,10.263,4.25,10.384,4.623,10.384z
		"/>
	<path fill="#4F5D6E" d="M10.632,3.567c0.984,0,1.749,0.336,2.293,1.008c0.544,0.673,0.817,1.624,0.817,2.854
		c0,1.231-0.274,2.187-0.824,2.868s-1.312,1.021-2.287,1.021c-0.488,0-0.933-0.09-1.336-0.27s-0.742-0.457-1.015-0.83H8.198
		l-0.239,0.963H7.146V0.546H8.28V3.13c0,0.579-0.018,1.099-0.055,1.559H8.28C8.809,3.941,9.593,3.567,10.632,3.567z M10.468,4.518
		c-0.775,0-1.333,0.222-1.675,0.667C8.451,5.628,8.28,6.377,8.28,7.43c0,1.054,0.175,1.806,0.526,2.259
		c0.351,0.455,0.914,0.682,1.688,0.682c0.697,0,1.217-0.254,1.559-0.764c0.342-0.508,0.513-1.238,0.513-2.19
		c0-0.976-0.171-1.702-0.513-2.181S11.183,4.518,10.468,4.518z"/>
	<path fill="#4F5D6E" d="M15.629,1.66c0-0.26,0.064-0.45,0.191-0.571c0.127-0.12,0.287-0.181,0.479-0.181
		c0.182,0,0.339,0.062,0.472,0.185s0.198,0.313,0.198,0.567s-0.066,0.445-0.198,0.571c-0.132,0.125-0.29,0.188-0.472,0.188
		c-0.191,0-0.351-0.063-0.479-0.188C15.693,2.105,15.629,1.915,15.629,1.66z M16.859,11.183h-1.135V3.69h1.135V11.183z"/>
	<path fill="#4F5D6E" d="M20.4,11.183h-1.135V0.546H20.4V11.183z"/>
	<path fill="#4F5D6E" d="M22.711,1.66c0-0.26,0.064-0.45,0.191-0.571c0.127-0.12,0.287-0.181,0.479-0.181
		c0.182,0,0.339,0.062,0.472,0.185s0.198,0.313,0.198,0.567s-0.066,0.445-0.198,0.571c-0.132,0.125-0.29,0.188-0.472,0.188
		c-0.191,0-0.351-0.063-0.479-0.188C22.775,2.105,22.711,1.915,22.711,1.66z M23.941,11.183h-1.135V3.69h1.135V11.183z"/>
	<path fill="#4F5D6E" d="M31.181,9.14c0,0.697-0.26,1.234-0.779,1.613c-0.52,0.377-1.249,0.566-2.188,0.566
		c-0.994,0-1.768-0.156-2.324-0.471V9.796c0.36,0.182,0.746,0.326,1.159,0.43c0.413,0.105,0.81,0.158,1.193,0.158
		c0.592,0,1.048-0.096,1.367-0.285c0.319-0.188,0.479-0.477,0.479-0.863c0-0.293-0.126-0.541-0.379-0.75
		c-0.253-0.207-0.746-0.451-1.48-0.734c-0.697-0.26-1.193-0.486-1.487-0.68c-0.294-0.194-0.513-0.414-0.656-0.66
		s-0.215-0.54-0.215-0.882c0-0.61,0.249-1.093,0.745-1.446c0.497-0.353,1.178-0.529,2.044-0.529c0.807,0,1.595,0.164,2.365,0.492
		L30.62,4.969c-0.752-0.31-1.433-0.465-2.044-0.465c-0.538,0-0.943,0.084-1.217,0.253s-0.41,0.401-0.41,0.697
		c0,0.2,0.051,0.371,0.154,0.513s0.268,0.275,0.496,0.403s0.666,0.313,1.313,0.554C29.8,7.247,30.4,7.573,30.712,7.901
		S31.181,8.642,31.181,9.14z"/>
	<path fill="#4F5D6E" d="M32.931,1.66c0-0.26,0.064-0.45,0.191-0.571c0.127-0.12,0.287-0.181,0.479-0.181
		c0.182,0,0.339,0.062,0.472,0.185s0.198,0.313,0.198,0.567s-0.066,0.445-0.198,0.571c-0.132,0.125-0.29,0.188-0.472,0.188
		c-0.191,0-0.351-0.063-0.479-0.188C32.995,2.105,32.931,1.915,32.931,1.66z M34.161,11.183h-1.135V3.69h1.135V11.183z"/>
	<path fill="#4F5D6E" d="M47.122,6.199c0,0.647-0.1,1.239-0.301,1.778c-0.201,0.537-0.483,0.955-0.848,1.25
		c-0.365,0.297-0.784,0.445-1.258,0.445c-0.392,0-0.722-0.119-0.991-0.355c-0.269-0.238-0.428-0.541-0.479-0.91h-0.055
		c-0.182,0.396-0.443,0.707-0.783,0.93c-0.339,0.225-0.742,0.336-1.207,0.336c-0.684,0-1.218-0.234-1.603-0.701
		s-0.578-1.102-0.578-1.904c0-0.93,0.269-1.686,0.807-2.266c0.538-0.582,1.244-0.872,2.119-0.872c0.31,0,0.661,0.028,1.053,0.085
		c0.392,0.058,0.745,0.136,1.06,0.236l-0.171,3.213v0.15c0,0.813,0.303,1.217,0.909,1.217c0.415,0,0.752-0.244,1.012-0.734
		s0.39-1.127,0.39-1.911c0-0.825-0.168-1.547-0.506-2.167s-0.817-1.098-1.439-1.432c-0.622-0.336-1.336-0.503-2.143-0.503
		c-1.016,0-1.9,0.211-2.652,0.632c-0.752,0.422-1.326,1.023-1.723,1.805c-0.396,0.782-0.595,1.686-0.595,2.711
		c0,1.391,0.367,2.459,1.101,3.207c0.734,0.746,1.791,1.121,3.172,1.121c0.957,0,1.951-0.197,2.98-0.588v0.908
		c-0.875,0.383-1.869,0.574-2.98,0.574c-1.654,0-2.938-0.455-3.852-1.363c-0.914-0.91-1.371-2.18-1.371-3.812
		c0-1.185,0.244-2.24,0.731-3.165s1.183-1.642,2.085-2.15c0.902-0.508,1.937-0.762,3.104-0.762c0.98,0,1.852,0.206,2.615,0.619
		c0.763,0.412,1.354,0.998,1.771,1.756C46.914,4.337,47.122,5.21,47.122,6.199z M40.054,7.095c0,1.158,0.444,1.736,1.333,1.736
		c0.943,0,1.456-0.713,1.538-2.14l0.096-1.784c-0.328-0.091-0.686-0.137-1.073-0.137c-0.592,0-1.056,0.205-1.391,0.615
		S40.054,6.365,40.054,7.095z"/>
	<path fill="#4F5D6E" d="M53.76,11.183l-0.226-1.066h-0.055c-0.374,0.471-0.746,0.787-1.118,0.953
		c-0.371,0.168-0.835,0.25-1.391,0.25c-0.743,0-1.325-0.191-1.747-0.574s-0.632-0.928-0.632-1.633c0-1.514,1.21-2.307,3.63-2.38
		l1.271-0.041V6.227c0-0.588-0.126-1.022-0.38-1.302c-0.252-0.281-0.657-0.421-1.213-0.421c-0.624,0-1.331,0.191-2.119,0.574
		L49.433,4.21c0.369-0.2,0.773-0.357,1.214-0.472c0.439-0.114,0.88-0.171,1.322-0.171c0.894,0,1.555,0.198,1.986,0.595
		c0.43,0.396,0.646,1.032,0.646,1.907v5.113H53.76z M51.196,10.384c0.706,0,1.261-0.193,1.665-0.582
		c0.402-0.387,0.604-0.93,0.604-1.627V7.498l-1.135,0.048c-0.902,0.032-1.553,0.172-1.952,0.42c-0.398,0.25-0.598,0.635-0.598,1.16
		c0,0.41,0.124,0.723,0.373,0.936C50.402,10.276,50.75,10.384,51.196,10.384z"/>
	<path fill="#4F5D6E" d="M62.038,10.179h-0.062c-0.524,0.76-1.308,1.141-2.352,1.141c-0.979,0-1.742-0.334-2.286-1.004
		c-0.545-0.67-0.817-1.623-0.817-2.858s0.273-2.194,0.82-2.878s1.308-1.025,2.283-1.025c1.017,0,1.796,0.369,2.338,1.107h0.089
		l-0.048-0.54l-0.027-0.526V0.546h1.135v10.637h-0.923L62.038,10.179z M59.769,10.37c0.774,0,1.336-0.211,1.686-0.633
		c0.348-0.422,0.522-1.102,0.522-2.041V7.457c0-1.062-0.177-1.819-0.53-2.272c-0.353-0.454-0.917-0.681-1.691-0.681
		c-0.665,0-1.175,0.259-1.527,0.776c-0.354,0.517-0.53,1.247-0.53,2.19c0,0.958,0.176,1.681,0.526,2.167
		C58.574,10.126,59.09,10.37,59.769,10.37z"/>
	<path fill="#4F5D6E" d="M67.158,11.183L64.314,3.69h1.217l1.613,4.443c0.364,1.039,0.579,1.715,0.643,2.023h0.055
		c0.05-0.24,0.209-0.742,0.475-1.5c0.268-0.76,0.865-2.415,1.795-4.967h1.217l-2.844,7.492H67.158z"/>
	<path fill="#4F5D6E" d="M77.139,11.183l-0.226-1.066h-0.055c-0.374,0.471-0.746,0.787-1.118,0.953
		c-0.371,0.168-0.835,0.25-1.391,0.25c-0.743,0-1.325-0.191-1.746-0.574c-0.422-0.383-0.633-0.928-0.633-1.633
		c0-1.514,1.21-2.307,3.63-2.38l1.271-0.041V6.227c0-0.588-0.126-1.022-0.38-1.302c-0.252-0.281-0.657-0.421-1.213-0.421
		c-0.624,0-1.331,0.191-2.119,0.574L72.812,4.21c0.369-0.2,0.773-0.357,1.214-0.472c0.439-0.114,0.88-0.171,1.322-0.171
		c0.894,0,1.555,0.198,1.986,0.595c0.43,0.396,0.646,1.032,0.646,1.907v5.113H77.139z M74.575,10.384
		c0.706,0,1.261-0.193,1.665-0.582c0.402-0.387,0.604-0.93,0.604-1.627V7.498L75.71,7.546c-0.902,0.032-1.553,0.172-1.952,0.42
		c-0.398,0.25-0.598,0.635-0.598,1.16c0,0.41,0.124,0.723,0.373,0.936C73.781,10.276,74.129,10.384,74.575,10.384z"/>
	<path fill="#4F5D6E" d="M85.444,11.183V6.336c0-0.61-0.139-1.066-0.417-1.367s-0.713-0.451-1.306-0.451
		c-0.784,0-1.358,0.212-1.723,0.636s-0.547,1.123-0.547,2.099v3.931h-1.135V3.69h0.923l0.185,1.025h0.055
		c0.232-0.369,0.559-0.655,0.978-0.857c0.419-0.203,0.887-0.305,1.401-0.305c0.902,0,1.581,0.218,2.037,0.652
		c0.456,0.436,0.684,1.132,0.684,2.089v4.888H85.444z"/>
	<path fill="#4F5D6E" d="M91.33,10.384c0.2,0,0.395-0.016,0.581-0.045s0.335-0.061,0.444-0.092v0.867
		c-0.123,0.061-0.305,0.109-0.543,0.146c-0.24,0.039-0.455,0.059-0.646,0.059c-1.449,0-2.174-0.764-2.174-2.289V4.572h-1.073V4.025
		l1.073-0.472l0.479-1.6h0.656V3.69h2.174v0.882h-2.174v4.409c0,0.451,0.107,0.799,0.321,1.039
		C90.662,10.263,90.956,10.384,91.33,10.384z"/>
	<path fill="#4F5D6E" d="M100.319,7.43c0,1.222-0.308,2.175-0.923,2.86c-0.615,0.688-1.465,1.029-2.55,1.029
		c-0.67,0-1.265-0.156-1.784-0.471s-0.921-0.766-1.203-1.354s-0.424-1.277-0.424-2.065c0-1.222,0.306-2.173,0.916-2.854
		c0.61-0.681,1.458-1.021,2.543-1.021c1.048,0,1.881,0.349,2.499,1.046C100.011,5.297,100.319,6.24,100.319,7.43z M94.611,7.43
		c0,0.958,0.191,1.687,0.574,2.188c0.383,0.5,0.945,0.752,1.688,0.752s1.307-0.25,1.691-0.75c0.386-0.498,0.578-1.229,0.578-2.19
		c0-0.952-0.192-1.676-0.578-2.171c-0.385-0.494-0.953-0.741-1.705-0.741c-0.743,0-1.304,0.244-1.682,0.731
		S94.611,6.464,94.611,7.43z"/>
	<path fill="#4F5D6E" d="M103.375,3.69v4.861c0,0.609,0.139,1.066,0.417,1.367s0.713,0.451,1.306,0.451
		c0.784,0,1.357-0.215,1.719-0.643c0.363-0.43,0.544-1.129,0.544-2.1V3.69h1.135v7.492h-0.937l-0.164-1.004h-0.062
		c-0.232,0.369-0.555,0.65-0.968,0.848c-0.412,0.195-0.883,0.293-1.411,0.293c-0.911,0-1.594-0.217-2.048-0.648
		c-0.453-0.434-0.68-1.127-0.68-2.078V3.69H103.375z"/>
	<path fill="#4F5D6E" d="M114.319,3.554c0.333,0,0.631,0.027,0.896,0.082l-0.157,1.053c-0.31-0.068-0.583-0.103-0.82-0.103
		c-0.606,0-1.125,0.246-1.555,0.738c-0.432,0.492-0.646,1.105-0.646,1.839v4.02h-1.135V3.69h0.937l0.13,1.388h0.055
		c0.278-0.487,0.613-0.863,1.005-1.128S113.85,3.554,114.319,3.554z"/>
	<path fill="#4F5D6E" d="M116.452,10.458c0-0.305,0.069-0.537,0.209-0.693c0.139-0.158,0.338-0.236,0.598-0.236
		c0.265,0,0.471,0.078,0.619,0.236c0.147,0.156,0.222,0.389,0.222,0.693c0,0.297-0.075,0.525-0.226,0.684
		c-0.15,0.16-0.355,0.24-0.615,0.24c-0.232,0-0.425-0.072-0.578-0.217C116.528,11.022,116.452,10.786,116.452,10.458z"/>
	<path fill="#4F5D6E" d="M123.336,11.319c-1.085,0-1.924-0.334-2.52-1.002c-0.594-0.666-0.892-1.611-0.892-2.833
		c0-1.253,0.302-2.222,0.905-2.905c0.604-0.684,1.465-1.025,2.581-1.025c0.36,0,0.72,0.039,1.08,0.116s0.643,0.169,0.848,0.273
		l-0.349,0.964c-0.251-0.101-0.524-0.184-0.82-0.25c-0.296-0.065-0.559-0.099-0.786-0.099c-1.522,0-2.283,0.971-2.283,2.912
		c0,0.921,0.186,1.628,0.558,2.12c0.371,0.492,0.921,0.738,1.65,0.738c0.624,0,1.265-0.135,1.921-0.404v1.006
		C124.729,11.19,124.097,11.319,123.336,11.319z"/>
	<path fill="#4F5D6E" d="M133.474,7.43c0,1.222-0.308,2.175-0.923,2.86c-0.615,0.688-1.465,1.029-2.55,1.029
		c-0.67,0-1.265-0.156-1.784-0.471s-0.921-0.766-1.203-1.354s-0.424-1.277-0.424-2.065c0-1.222,0.306-2.173,0.916-2.854
		c0.61-0.681,1.458-1.021,2.543-1.021c1.048,0,1.881,0.349,2.499,1.046C133.165,5.297,133.474,6.24,133.474,7.43z M127.766,7.43
		c0,0.958,0.191,1.687,0.574,2.188c0.383,0.5,0.945,0.752,1.688,0.752s1.307-0.25,1.691-0.75c0.386-0.498,0.578-1.229,0.578-2.19
		c0-0.952-0.192-1.676-0.578-2.171c-0.385-0.494-0.953-0.741-1.705-0.741c-0.743,0-1.304,0.244-1.682,0.731
		S127.766,6.464,127.766,7.43z"/>
	<path fill="#4F5D6E" d="M145.013,11.183V6.309c0-0.597-0.128-1.045-0.383-1.343c-0.255-0.299-0.651-0.448-1.189-0.448
		c-0.706,0-1.229,0.203-1.565,0.608s-0.506,1.03-0.506,1.873v4.184h-1.135V6.309c0-0.597-0.128-1.045-0.383-1.343
		c-0.255-0.299-0.654-0.448-1.196-0.448c-0.711,0-1.231,0.213-1.562,0.64c-0.331,0.426-0.496,1.124-0.496,2.095v3.931h-1.135V3.69
		h0.923l0.185,1.025h0.055c0.214-0.364,0.516-0.649,0.906-0.854c0.389-0.205,0.825-0.308,1.309-0.308
		c1.171,0,1.937,0.424,2.297,1.271h0.055c0.224-0.392,0.547-0.702,0.971-0.93s0.907-0.342,1.449-0.342
		c0.848,0,1.482,0.218,1.904,0.652c0.421,0.436,0.632,1.132,0.632,2.089v4.888H145.013z"/>
</g>
</svg>
