<?xml version="1.0" encoding="utf-8"?>
<!-- Generator: Adobe Illustrator 16.0.0, SVG Export Plug-In . SVG Version: 6.00 Build 0)  -->
<!DOCTYPE svg PUBLIC "-//W3C//DTD SVG 1.1//EN" "http://www.w3.org/Graphics/SVG/1.1/DTD/svg11.dtd" [
	<!ENTITY ns_flows "http://ns.adobe.com/Flows/1.0/">
	<!ENTITY ns_extend "http://ns.adobe.com/Extensibility/1.0/">
	<!ENTITY ns_ai "http://ns.adobe.com/AdobeIllustrator/10.0/">
	<!ENTITY ns_graphs "http://ns.adobe.com/Graphs/1.0/">
]>
<svg version="1.1" id="Слой_1" xmlns:x="&ns_extend;" xmlns:i="&ns_ai;" xmlns:graph="&ns_graphs;"
	 xmlns="http://www.w3.org/2000/svg" xmlns:xlink="http://www.w3.org/1999/xlink" xmlns:a="http://ns.adobe.com/AdobeSVGViewerExtensions/3.0/"
	 x="0px" y="0px" width="174px" height="13px" viewBox="0 0 174 13" enable-background="new 0 0 174 13" xml:space="preserve">
<g>
	<path fill="#4F5D6E" d="M6.199,10.384c0.201,0,0.394-0.016,0.581-0.045s0.335-0.061,0.444-0.092v0.867
		c-0.123,0.061-0.304,0.109-0.543,0.146c-0.239,0.039-0.455,0.059-0.646,0.059c-1.449,0-2.174-0.764-2.174-2.289V4.572H2.788V4.025
		l1.073-0.472l0.479-1.6h0.656V3.69h2.174v0.882H4.996v4.409c0,0.451,0.107,0.799,0.321,1.039
		C5.531,10.263,5.825,10.384,6.199,10.384z"/>
	<path fill="#4F5D6E" d="M13.329,11.183l-0.226-1.066h-0.055c-0.374,0.471-0.746,0.787-1.118,0.953
		c-0.372,0.168-0.835,0.25-1.391,0.25c-0.743,0-1.325-0.191-1.747-0.574S8.161,9.817,8.161,9.112c0-1.514,1.21-2.307,3.63-2.38
		l1.271-0.041V6.227c0-0.588-0.126-1.022-0.379-1.302c-0.253-0.281-0.657-0.421-1.213-0.421c-0.625,0-1.331,0.191-2.119,0.574
		L9.001,4.21c0.369-0.2,0.773-0.357,1.213-0.472s0.881-0.171,1.323-0.171c0.893,0,1.555,0.198,1.986,0.595s0.646,1.032,0.646,1.907
		v5.113H13.329z M10.765,10.384c0.707,0,1.261-0.193,1.665-0.582c0.403-0.387,0.605-0.93,0.605-1.627V7.498L11.9,7.546
		c-0.902,0.032-1.553,0.172-1.952,0.42C9.549,8.216,9.35,8.601,9.35,9.126c0,0.41,0.124,0.723,0.373,0.936
		C9.971,10.276,10.318,10.384,10.765,10.384z"/>
	<path fill="#4F5D6E" d="M21.34,9.14c0,0.697-0.26,1.234-0.779,1.613c-0.52,0.377-1.249,0.566-2.188,0.566
		c-0.994,0-1.768-0.156-2.324-0.471V9.796c0.36,0.182,0.746,0.326,1.159,0.43c0.413,0.105,0.81,0.158,1.193,0.158
		c0.592,0,1.048-0.096,1.367-0.285c0.319-0.188,0.479-0.477,0.479-0.863c0-0.293-0.126-0.541-0.379-0.75
		c-0.253-0.207-0.746-0.451-1.48-0.734c-0.697-0.26-1.193-0.486-1.487-0.68c-0.294-0.194-0.513-0.414-0.656-0.66
		s-0.215-0.54-0.215-0.882c0-0.61,0.249-1.093,0.745-1.446c0.497-0.353,1.178-0.529,2.044-0.529c0.807,0,1.595,0.164,2.365,0.492
		L20.78,4.969c-0.752-0.31-1.433-0.465-2.044-0.465c-0.538,0-0.943,0.084-1.217,0.253s-0.41,0.401-0.41,0.697
		c0,0.2,0.051,0.371,0.154,0.513s0.268,0.275,0.496,0.403s0.666,0.313,1.313,0.554c0.889,0.323,1.489,0.649,1.801,0.978
		S21.34,8.642,21.34,9.14z"/>
	<path fill="#4F5D6E" d="M28.313,11.183V6.336c0-0.61-0.139-1.066-0.417-1.367s-0.713-0.451-1.306-0.451
		c-0.789,0-1.364,0.214-1.726,0.643s-0.543,1.13-0.543,2.105v3.917h-1.135V0.546h1.135v3.22c0,0.388-0.018,0.709-0.055,0.964h0.068
		c0.223-0.36,0.541-0.644,0.954-0.852c0.413-0.207,0.883-0.311,1.412-0.311c0.916,0,1.603,0.218,2.061,0.652
		c0.458,0.436,0.687,1.127,0.687,2.075v4.888H28.313z"/>
	<path fill="#4F5D6E" d="M32.9,7.348c0.196-0.278,0.495-0.643,0.896-1.094l2.42-2.563h1.347l-3.035,3.192l3.247,4.3H36.4
		l-2.646-3.541L32.9,8.38v2.803h-1.121V0.546H32.9v5.64c0,0.251-0.018,0.638-0.055,1.162H32.9z"/>
	<path fill="#4F5D6E" d="M42.292,11.319c-1.107,0-1.981-0.336-2.622-1.012c-0.64-0.674-0.96-1.611-0.96-2.81
		c0-1.208,0.297-2.167,0.892-2.878s1.394-1.066,2.396-1.066c0.939,0,1.682,0.309,2.229,0.926c0.547,0.618,0.82,1.433,0.82,2.444
		v0.718h-5.161c0.023,0.881,0.245,1.547,0.667,2.004c0.421,0.455,1.015,0.684,1.781,0.684c0.807,0,1.604-0.17,2.393-0.506v1.012
		c-0.401,0.172-0.78,0.297-1.138,0.371C43.23,11.282,42.798,11.319,42.292,11.319z M41.985,4.504c-0.602,0-1.081,0.196-1.439,0.588
		s-0.568,0.935-0.632,1.627h3.917c0-0.716-0.16-1.264-0.479-1.644C43.033,4.694,42.577,4.504,41.985,4.504z"/>
	<path fill="#4F5D6E" d="M52.109,11.183V6.336c0-0.61-0.139-1.066-0.417-1.367c-0.277-0.301-0.713-0.451-1.306-0.451
		c-0.784,0-1.358,0.212-1.723,0.636s-0.547,1.123-0.547,2.099v3.931h-1.135V3.69h0.923l0.185,1.025h0.055
		c0.232-0.369,0.558-0.655,0.978-0.857c0.419-0.203,0.886-0.305,1.401-0.305c0.902,0,1.581,0.218,2.037,0.652
		c0.456,0.436,0.684,1.132,0.684,2.089v4.888H52.109z"/>
	<path fill="#4F5D6E" d="M57.995,10.384c0.2,0,0.395-0.016,0.581-0.045s0.335-0.061,0.444-0.092v0.867
		c-0.123,0.061-0.305,0.109-0.543,0.146c-0.24,0.039-0.455,0.059-0.646,0.059c-1.449,0-2.174-0.764-2.174-2.289V4.572h-1.073V4.025
		l1.073-0.472l0.479-1.6h0.656V3.69h2.174v0.882h-2.174v4.409c0,0.451,0.107,0.799,0.321,1.039
		C57.327,10.263,57.621,10.384,57.995,10.384z"/>
	<path fill="#4F5D6E" d="M71.072,6.199c0,0.647-0.101,1.239-0.301,1.778c-0.2,0.537-0.483,0.955-0.848,1.25
		c-0.364,0.297-0.784,0.445-1.258,0.445c-0.392,0-0.723-0.119-0.991-0.355c-0.269-0.238-0.429-0.541-0.479-0.91h-0.055
		c-0.183,0.396-0.443,0.707-0.782,0.93c-0.34,0.225-0.742,0.336-1.207,0.336c-0.684,0-1.218-0.234-1.604-0.701
		c-0.385-0.467-0.577-1.102-0.577-1.904c0-0.93,0.269-1.686,0.807-2.266c0.538-0.582,1.244-0.872,2.119-0.872
		c0.31,0,0.661,0.028,1.053,0.085c0.392,0.058,0.745,0.136,1.06,0.236l-0.171,3.213v0.15c0,0.813,0.303,1.217,0.909,1.217
		c0.415,0,0.752-0.244,1.012-0.734s0.39-1.127,0.39-1.911c0-0.825-0.169-1.547-0.506-2.167s-0.817-1.098-1.438-1.432
		c-0.623-0.336-1.337-0.503-2.144-0.503c-1.017,0-1.9,0.211-2.652,0.632c-0.752,0.422-1.326,1.023-1.723,1.805
		c-0.396,0.782-0.595,1.686-0.595,2.711c0,1.391,0.367,2.459,1.101,3.207c0.733,0.746,1.791,1.121,3.172,1.121
		c0.957,0,1.95-0.197,2.98-0.588v0.908c-0.875,0.383-1.868,0.574-2.98,0.574c-1.654,0-2.938-0.455-3.853-1.363
		c-0.913-0.91-1.37-2.18-1.37-3.812c0-1.185,0.244-2.24,0.731-3.165s1.183-1.642,2.085-2.15c0.902-0.508,1.937-0.762,3.104-0.762
		c0.979,0,1.852,0.206,2.614,0.619c0.764,0.412,1.354,0.998,1.771,1.756C70.863,4.337,71.072,5.21,71.072,6.199z M64.003,7.095
		c0,1.158,0.444,1.736,1.333,1.736c0.943,0,1.456-0.713,1.538-2.14l0.096-1.784c-0.328-0.091-0.686-0.137-1.073-0.137
		c-0.593,0-1.056,0.205-1.392,0.615C64.171,5.796,64.003,6.365,64.003,7.095z"/>
	<path fill="#4F5D6E" d="M77.709,11.183l-0.226-1.066h-0.055c-0.374,0.471-0.746,0.787-1.118,0.953
		c-0.371,0.168-0.835,0.25-1.391,0.25c-0.743,0-1.325-0.191-1.746-0.574c-0.422-0.383-0.633-0.928-0.633-1.633
		c0-1.514,1.21-2.307,3.63-2.38l1.271-0.041V6.227c0-0.588-0.126-1.022-0.38-1.302c-0.252-0.281-0.657-0.421-1.213-0.421
		c-0.624,0-1.331,0.191-2.119,0.574L73.382,4.21c0.369-0.2,0.773-0.357,1.214-0.472c0.439-0.114,0.88-0.171,1.322-0.171
		c0.894,0,1.555,0.198,1.986,0.595c0.43,0.396,0.646,1.032,0.646,1.907v5.113H77.709z M75.146,10.384
		c0.706,0,1.261-0.193,1.665-0.582c0.402-0.387,0.604-0.93,0.604-1.627V7.498l-1.135,0.048c-0.902,0.032-1.553,0.172-1.952,0.42
		c-0.398,0.25-0.598,0.635-0.598,1.16c0,0.41,0.124,0.723,0.373,0.936C74.352,10.276,74.7,10.384,75.146,10.384z"/>
	<path fill="#4F5D6E" d="M85.988,10.179h-0.062c-0.524,0.76-1.308,1.141-2.352,1.141c-0.979,0-1.742-0.334-2.286-1.004
		c-0.545-0.67-0.817-1.623-0.817-2.858s0.273-2.194,0.82-2.878s1.308-1.025,2.283-1.025c1.017,0,1.796,0.369,2.338,1.107h0.089
		l-0.048-0.54l-0.027-0.526V0.546h1.135v10.637h-0.923L85.988,10.179z M83.718,10.37c0.774,0,1.336-0.211,1.686-0.633
		c0.348-0.422,0.522-1.102,0.522-2.041V7.457c0-1.062-0.177-1.819-0.53-2.272c-0.353-0.454-0.917-0.681-1.691-0.681
		c-0.665,0-1.175,0.259-1.527,0.776c-0.354,0.517-0.53,1.247-0.53,2.19c0,0.958,0.176,1.681,0.526,2.167
		C82.524,10.126,83.04,10.37,83.718,10.37z"/>
	<path fill="#4F5D6E" d="M91.107,11.183L88.264,3.69h1.217l1.613,4.443c0.365,1.039,0.58,1.715,0.643,2.023h0.055
		c0.051-0.24,0.209-0.742,0.475-1.5c0.268-0.76,0.865-2.415,1.795-4.967h1.217l-2.844,7.492H91.107z"/>
	<path fill="#4F5D6E" d="M101.088,11.183l-0.225-1.066h-0.055c-0.375,0.471-0.746,0.787-1.119,0.953
		c-0.371,0.168-0.834,0.25-1.391,0.25c-0.742,0-1.324-0.191-1.746-0.574S95.92,9.817,95.92,9.112c0-1.514,1.211-2.307,3.631-2.38
		l1.271-0.041V6.227c0-0.588-0.127-1.022-0.381-1.302c-0.252-0.281-0.656-0.421-1.213-0.421c-0.623,0-1.33,0.191-2.119,0.574
		L96.762,4.21c0.369-0.2,0.773-0.357,1.213-0.472s0.881-0.171,1.322-0.171c0.895,0,1.555,0.198,1.986,0.595
		c0.43,0.396,0.646,1.032,0.646,1.907v5.113H101.088z M98.525,10.384c0.705,0,1.26-0.193,1.664-0.582
		c0.402-0.387,0.605-0.93,0.605-1.627V7.498L99.66,7.546c-0.902,0.032-1.553,0.172-1.953,0.42c-0.398,0.25-0.598,0.635-0.598,1.16
		c0,0.41,0.125,0.723,0.373,0.936C97.73,10.276,98.078,10.384,98.525,10.384z"/>
	<path fill="#4F5D6E" d="M109.395,11.183V6.336c0-0.61-0.139-1.066-0.418-1.367c-0.277-0.301-0.713-0.451-1.305-0.451
		c-0.785,0-1.359,0.212-1.723,0.636c-0.365,0.424-0.547,1.123-0.547,2.099v3.931h-1.135V3.69h0.922l0.186,1.025h0.055
		c0.232-0.369,0.559-0.655,0.977-0.857c0.42-0.203,0.887-0.305,1.402-0.305c0.902,0,1.58,0.218,2.037,0.652
		c0.455,0.436,0.684,1.132,0.684,2.089v4.888H109.395z"/>
	<path fill="#4F5D6E" d="M115.279,10.384c0.201,0,0.395-0.016,0.582-0.045c0.186-0.029,0.334-0.061,0.443-0.092v0.867
		c-0.123,0.061-0.305,0.109-0.543,0.146c-0.24,0.039-0.455,0.059-0.646,0.059c-1.449,0-2.174-0.764-2.174-2.289V4.572h-1.072V4.025
		l1.072-0.472l0.479-1.6h0.656V3.69h2.174v0.882h-2.174v4.409c0,0.451,0.107,0.799,0.322,1.039
		C114.611,10.263,114.906,10.384,115.279,10.384z"/>
	<path fill="#4F5D6E" d="M124.27,7.43c0,1.222-0.309,2.175-0.924,2.86c-0.615,0.688-1.465,1.029-2.549,1.029
		c-0.67,0-1.266-0.156-1.785-0.471s-0.92-0.766-1.203-1.354c-0.281-0.588-0.424-1.277-0.424-2.065c0-1.222,0.307-2.173,0.916-2.854
		c0.611-0.681,1.459-1.021,2.543-1.021c1.049,0,1.881,0.349,2.5,1.046C123.961,5.297,124.27,6.24,124.27,7.43z M118.561,7.43
		c0,0.958,0.191,1.687,0.574,2.188c0.383,0.5,0.945,0.752,1.689,0.752c0.742,0,1.307-0.25,1.691-0.75
		c0.385-0.498,0.578-1.229,0.578-2.19c0-0.952-0.193-1.676-0.578-2.171c-0.385-0.494-0.953-0.741-1.705-0.741
		c-0.744,0-1.305,0.244-1.682,0.731C118.75,5.736,118.561,6.464,118.561,7.43z"/>
	<path fill="#4F5D6E" d="M127.324,3.69v4.861c0,0.609,0.139,1.066,0.418,1.367c0.277,0.301,0.713,0.451,1.305,0.451
		c0.785,0,1.357-0.215,1.719-0.643c0.363-0.43,0.545-1.129,0.545-2.1V3.69h1.135v7.492h-0.938l-0.164-1.004h-0.061
		c-0.232,0.369-0.555,0.65-0.969,0.848c-0.412,0.195-0.883,0.293-1.41,0.293c-0.912,0-1.594-0.217-2.049-0.648
		c-0.453-0.434-0.68-1.127-0.68-2.078V3.69H127.324z"/>
	<path fill="#4F5D6E" d="M138.27,3.554c0.332,0,0.631,0.027,0.895,0.082l-0.156,1.053c-0.311-0.068-0.584-0.103-0.82-0.103
		c-0.607,0-1.125,0.246-1.555,0.738c-0.432,0.492-0.646,1.105-0.646,1.839v4.02h-1.135V3.69h0.936l0.131,1.388h0.055
		c0.277-0.487,0.613-0.863,1.004-1.128C137.369,3.686,137.799,3.554,138.27,3.554z"/>
	<path fill="#4F5D6E" d="M140.402,10.458c0-0.305,0.068-0.537,0.209-0.693c0.139-0.158,0.338-0.236,0.598-0.236
		c0.264,0,0.471,0.078,0.619,0.236c0.146,0.156,0.221,0.389,0.221,0.693c0,0.297-0.074,0.525-0.225,0.684
		c-0.15,0.16-0.355,0.24-0.615,0.24c-0.232,0-0.426-0.072-0.578-0.217C140.479,11.022,140.402,10.786,140.402,10.458z"/>
	<path fill="#4F5D6E" d="M147.285,11.319c-1.084,0-1.924-0.334-2.52-1.002c-0.594-0.666-0.891-1.611-0.891-2.833
		c0-1.253,0.301-2.222,0.904-2.905c0.605-0.684,1.465-1.025,2.582-1.025c0.359,0,0.719,0.039,1.08,0.116
		c0.359,0.077,0.643,0.169,0.848,0.273l-0.35,0.964c-0.25-0.101-0.523-0.184-0.82-0.25c-0.295-0.065-0.559-0.099-0.785-0.099
		c-1.523,0-2.283,0.971-2.283,2.912c0,0.921,0.186,1.628,0.557,2.12s0.922,0.738,1.65,0.738c0.625,0,1.266-0.135,1.922-0.404v1.006
		C148.678,11.19,148.047,11.319,147.285,11.319z"/>
	<path fill="#4F5D6E" d="M157.424,7.43c0,1.222-0.309,2.175-0.924,2.86c-0.615,0.688-1.465,1.029-2.549,1.029
		c-0.67,0-1.266-0.156-1.785-0.471s-0.92-0.766-1.203-1.354c-0.281-0.588-0.424-1.277-0.424-2.065c0-1.222,0.307-2.173,0.916-2.854
		c0.611-0.681,1.459-1.021,2.543-1.021c1.049,0,1.881,0.349,2.5,1.046C157.115,5.297,157.424,6.24,157.424,7.43z M151.715,7.43
		c0,0.958,0.191,1.687,0.574,2.188c0.383,0.5,0.945,0.752,1.689,0.752c0.742,0,1.307-0.25,1.691-0.75
		c0.385-0.498,0.578-1.229,0.578-2.19c0-0.952-0.193-1.676-0.578-2.171c-0.385-0.494-0.953-0.741-1.705-0.741
		c-0.744,0-1.305,0.244-1.682,0.731C151.904,5.736,151.715,6.464,151.715,7.43z"/>
	<path fill="#4F5D6E" d="M168.963,11.183V6.309c0-0.597-0.129-1.045-0.383-1.343c-0.256-0.299-0.652-0.448-1.189-0.448
		c-0.707,0-1.229,0.203-1.566,0.608c-0.336,0.405-0.506,1.03-0.506,1.873v4.184h-1.135V6.309c0-0.597-0.127-1.045-0.383-1.343
		c-0.254-0.299-0.654-0.448-1.195-0.448c-0.711,0-1.232,0.213-1.563,0.64c-0.33,0.426-0.496,1.124-0.496,2.095v3.931h-1.135V3.69
		h0.924l0.184,1.025h0.055c0.215-0.364,0.516-0.649,0.906-0.854c0.389-0.205,0.826-0.308,1.309-0.308
		c1.172,0,1.938,0.424,2.297,1.271h0.055c0.225-0.392,0.547-0.702,0.971-0.93s0.908-0.342,1.449-0.342
		c0.848,0,1.482,0.218,1.904,0.652c0.422,0.436,0.633,1.132,0.633,2.089v4.888H168.963z"/>
</g>
</svg>
