<?xml version="1.0" encoding="utf-8"?>
<!-- Generator: Adobe Illustrator 16.0.0, SVG Export Plug-In . SVG Version: 6.00 Build 0)  -->
<!DOCTYPE svg PUBLIC "-//W3C//DTD SVG 1.1//EN" "http://www.w3.org/Graphics/SVG/1.1/DTD/svg11.dtd">
<svg version="1.1" id="Слой_1" xmlns="http://www.w3.org/2000/svg" xmlns:xlink="http://www.w3.org/1999/xlink" x="0px" y="0px"
	 width="72px" height="60px" viewBox="0 0 72 60" enable-background="new 0 0 72 60" xml:space="preserve">
<g>
	<path fill="#4CB2DB" d="M26,35.625h-2.937l-4.784-6.958c-0.008-0.012-0.018-0.022-0.025-0.033c-0.015-0.021-0.029-0.04-0.044-0.06
		c-0.017-0.019-0.032-0.034-0.048-0.052c-0.012-0.013-0.022-0.024-0.034-0.038c-0.02-0.018-0.038-0.034-0.058-0.052
		c-0.012-0.01-0.022-0.02-0.034-0.028c-0.02-0.018-0.04-0.03-0.062-0.045c-0.013-0.01-0.023-0.02-0.037-0.026
		c-0.02-0.014-0.039-0.024-0.06-0.037c-0.016-0.009-0.03-0.019-0.046-0.025c-0.02-0.01-0.037-0.02-0.057-0.026
		c-0.019-0.01-0.037-0.019-0.058-0.026c-0.016-0.006-0.032-0.012-0.05-0.019c-0.021-0.008-0.044-0.017-0.064-0.021
		c-0.018-0.005-0.034-0.009-0.051-0.014c-0.021-0.006-0.044-0.011-0.067-0.015c-0.02-0.005-0.039-0.007-0.059-0.01
		c-0.021-0.003-0.041-0.006-0.062-0.008c-0.026-0.003-0.056-0.004-0.081-0.004c-0.014-0.002-0.024-0.004-0.036-0.004h-0.012
		c0,0-0.001,0-0.002,0h-2.644c-0.018,0-0.032,0.002-0.05,0.004c-0.022,0-0.046,0.001-0.068,0.004
		c-0.025,0.002-0.051,0.006-0.076,0.009c-0.015,0.003-0.027,0.004-0.041,0.007c-0.002,0.001-0.004,0.002-0.006,0.002
		c-0.03,0.006-0.06,0.013-0.087,0.021c-0.013,0.004-0.023,0.005-0.035,0.009c-0.026,0.009-0.053,0.019-0.078,0.027
		c-0.014,0.005-0.027,0.01-0.041,0.015c-0.02,0.009-0.037,0.019-0.057,0.026c-0.018,0.01-0.036,0.018-0.056,0.027
		c-0.01,0.005-0.02,0.013-0.029,0.019c-0.025,0.015-0.052,0.028-0.075,0.046c-0.002,0.001-0.003,0.002-0.005,0.004
		c-0.065,0.043-0.126,0.093-0.181,0.147c-0.001,0.002-0.002,0.003-0.003,0.004c-0.026,0.027-0.054,0.056-0.078,0.086
		c-0.014,0.018-0.027,0.037-0.042,0.056c-0.009,0.013-0.02,0.025-0.027,0.039c-0.021,0.028-0.038,0.06-0.056,0.09
		c-0.002,0.004-0.006,0.008-0.008,0.012c-0.016,0.028-0.028,0.06-0.042,0.087c-0.004,0.008-0.008,0.016-0.012,0.021
		c-0.01,0.022-0.018,0.047-0.025,0.07C13.408,28.97,13.4,28.984,13.396,29c-0.005,0.017-0.009,0.033-0.015,0.051
		c-0.006,0.022-0.012,0.046-0.019,0.069c-0.002,0.012-0.004,0.023-0.005,0.035c-0.005,0.029-0.01,0.06-0.015,0.09
		c-0.001,0.009-0.001,0.02-0.002,0.027c-0.001,0.032-0.004,0.064-0.004,0.098c0,0.002-0.001,0.004-0.001,0.006
		c0,0.014,0.002,0.024,0.002,0.038c0.002,0.025,0.002,0.054,0.004,0.079c0.004,0.025,0.008,0.05,0.012,0.074
		c0.002,0.016,0.003,0.028,0.005,0.044l0.003,0.014c0.001,0.002,0.001,0.004,0.001,0.004l1.149,5.997h-3l-2.134-2.134
		c-0.008-0.009-0.018-0.016-0.025-0.022c-0.021-0.021-0.043-0.04-0.065-0.06c-0.016-0.014-0.032-0.024-0.049-0.037
		C9.222,33.36,9.207,33.35,9.19,33.339c-0.014-0.016-0.033-0.025-0.053-0.036c-0.017-0.012-0.031-0.021-0.049-0.029
		c-0.02-0.011-0.037-0.019-0.056-0.028c-0.019-0.007-0.037-0.017-0.056-0.024c-0.019-0.006-0.035-0.014-0.054-0.02
		c-0.021-0.008-0.041-0.017-0.063-0.022c-0.018-0.006-0.035-0.009-0.052-0.013c-0.022-0.006-0.045-0.012-0.066-0.018
		c-0.02-0.004-0.038-0.006-0.058-0.008c-0.021-0.004-0.042-0.007-0.063-0.009c-0.03-0.005-0.063-0.005-0.095-0.007
		c-0.011,0-0.019,0-0.027,0s-0.02,0-0.028,0.001c-0.031,0.001-0.063,0.001-0.096,0.006c-0.021,0.002-0.041,0.005-0.063,0.009
		c-0.02,0.002-0.038,0.004-0.058,0.008c-0.022,0.006-0.045,0.012-0.067,0.018c-0.018,0.005-0.034,0.009-0.052,0.013
		c-0.021,0.008-0.041,0.017-0.062,0.023c-0.018,0.005-0.035,0.011-0.054,0.019c-0.02,0.008-0.036,0.019-0.056,0.024
		c-0.02,0.01-0.038,0.018-0.056,0.028c-0.018,0.008-0.032,0.02-0.049,0.029c-0.018,0.011-0.036,0.021-0.056,0.034
		c-0.017,0.011-0.032,0.022-0.048,0.035c-0.018,0.012-0.034,0.023-0.052,0.037c-0.021,0.019-0.043,0.039-0.063,0.059
		c-0.009,0.01-0.018,0.016-0.025,0.023C7.609,33.5,7.601,33.51,7.592,33.519c-0.02,0.021-0.038,0.042-0.058,0.063
		C7.52,33.6,7.508,33.617,7.495,33.637c-0.013,0.014-0.022,0.028-0.032,0.044c-0.015,0.021-0.024,0.04-0.038,0.061
		c-0.008,0.015-0.018,0.029-0.025,0.045c-0.011,0.021-0.021,0.04-0.029,0.062c-0.008,0.017-0.017,0.032-0.022,0.049
		c-0.009,0.021-0.016,0.04-0.022,0.061c-0.006,0.019-0.014,0.036-0.02,0.057c-0.006,0.02-0.011,0.04-0.015,0.062
		c-0.007,0.019-0.012,0.038-0.015,0.057c-0.005,0.025-0.009,0.048-0.012,0.072c-0.003,0.017-0.005,0.032-0.007,0.05
		c-0.004,0.042-0.007,0.082-0.007,0.124v4.999c0,0.025,0.003,0.051,0.004,0.076c-0.021,0.346,0.098,0.7,0.361,0.964
		c0.245,0.244,0.563,0.367,0.885,0.367c0.318,0,0.64-0.123,0.883-0.367l2.289-2.29h2.845l-1.148,5.997c0,0.002,0,0.002,0,0.004
		l-0.005,0.015c-0.002,0.016-0.004,0.028-0.006,0.043c-0.003,0.024-0.007,0.051-0.01,0.074c-0.003,0.025-0.003,0.054-0.005,0.08
		c0,0.014-0.002,0.025-0.002,0.037c0,0.002,0.001,0.004,0.001,0.006c0,0.032,0.003,0.063,0.005,0.098
		c0.002,0.01,0.002,0.021,0.002,0.029c0.004,0.029,0.009,0.061,0.014,0.089c0.002,0.012,0.004,0.023,0.007,0.036
		c0.005,0.021,0.011,0.046,0.019,0.067c0.004,0.018,0.007,0.033,0.013,0.051c0.006,0.017,0.012,0.031,0.018,0.047
		c0.008,0.021,0.016,0.048,0.025,0.069c0.003,0.007,0.007,0.015,0.011,0.02c0.014,0.031,0.026,0.061,0.042,0.088
		c0.003,0.005,0.006,0.009,0.008,0.014c0.018,0.03,0.036,0.061,0.056,0.089c0.01,0.014,0.02,0.025,0.028,0.039
		c0.014,0.02,0.027,0.038,0.043,0.056c0.022,0.03,0.05,0.059,0.076,0.086c0.001,0.002,0.002,0.002,0.003,0.004
		c0.056,0.055,0.115,0.104,0.182,0.147c0.002,0.002,0.002,0.004,0.004,0.004c0.024,0.018,0.051,0.032,0.076,0.046
		c0.01,0.007,0.019,0.013,0.028,0.019c0.02,0.01,0.038,0.018,0.058,0.026c0.019,0.009,0.035,0.02,0.055,0.027
		c0.014,0.005,0.028,0.009,0.042,0.015c0.024,0.01,0.052,0.02,0.076,0.026c0.013,0.004,0.023,0.006,0.035,0.01
		c0.028,0.008,0.058,0.016,0.088,0.021c0.002,0.001,0.004,0.002,0.006,0.002c0.02,0.004,0.038,0.006,0.058,0.008
		c0.019,0.004,0.036,0.006,0.056,0.008c0.042,0.006,0.083,0.008,0.125,0.008c0.002,0,0.004,0,0.007,0h2.645c0.001,0,0.002,0,0.002,0
		c0.004,0,0.008-0.001,0.012-0.001c0.043,0,0.087-0.003,0.129-0.009c0.014,0,0.024-0.004,0.038-0.006
		c0.034-0.004,0.068-0.01,0.101-0.018c0.014-0.004,0.027-0.008,0.04-0.011c0.032-0.01,0.064-0.019,0.097-0.029
		c0.014-0.004,0.026-0.01,0.04-0.015c0.03-0.013,0.061-0.025,0.092-0.041c0.013-0.006,0.023-0.012,0.037-0.018
		c0.04-0.021,0.078-0.044,0.116-0.068c0.007-0.006,0.016-0.014,0.021-0.019c0.03-0.021,0.06-0.042,0.086-0.064
		c0.015-0.013,0.026-0.024,0.04-0.036c0.022-0.021,0.043-0.042,0.063-0.064c0.012-0.012,0.023-0.023,0.034-0.037
		c0.024-0.028,0.05-0.061,0.072-0.092c0.004-0.007,0.008-0.01,0.012-0.016l4.784-6.96h2.937c0.689,0,1.25-0.559,1.25-1.249
		C27.253,36.187,26.689,35.625,26,35.625z M16.105,30.625h0.487l3.438,5.001h-2.967L16.105,30.625z M20.03,38.125l-3.438,5h-0.487
		l0.958-5H20.03z"/>
	<path fill="#4CB2DB" d="M43.5,41.876h-10c-0.69,0-1.25,0.559-1.25,1.249s0.56,1.25,1.25,1.25h10c0.689,0,1.25-0.56,1.25-1.25
		S44.189,41.876,43.5,41.876z"/>
	<path fill="#4CB2DB" d="M43.5,35.625h-10c-0.69,0-1.25,0.56-1.25,1.249c0,0.691,0.56,1.251,1.25,1.251h10
		c0.689,0,1.25-0.56,1.25-1.251C44.75,36.185,44.189,35.625,43.5,35.625z"/>
	<path fill="#4CB2DB" d="M33.5,31.876h10c0.689,0,1.25-0.56,1.25-1.251c0-0.689-0.561-1.249-1.25-1.249h-10
		c-0.69,0-1.25,0.56-1.25,1.249C32.25,31.316,32.81,31.876,33.5,31.876z"/>
	<path fill="#4CB2DB" d="M57.25,34.375c-0.691,0-1.251,0.561-1.251,1.25v8.75c0,0.69,0.56,1.249,1.251,1.249
		c0.689,0,1.249-0.559,1.249-1.249v-8.75C58.499,34.936,57.939,34.375,57.25,34.375z"/>
	<path fill="#4CB2DB" d="M57.25,28.124c-0.691,0-1.251,0.56-1.251,1.251v1.25c0,0.691,0.56,1.249,1.251,1.249
		c0.689,0,1.249-0.558,1.249-1.249v-1.25C58.499,28.684,57.939,28.124,57.25,28.124z"/>
	<path fill="#4CB2DB" d="M64.748,8.125H12.249c-3.445,0-6.25,2.804-6.25,6.251v7.625C3.151,22.581,1,25.106,1,28.124v17.5
		c0,3.447,2.804,6.251,6.251,6.251h52.5c3.444,0,6.249-2.804,6.249-6.251V38c2.849-0.582,5-3.106,5-6.126V14.375
		C71,10.929,68.196,8.125,64.748,8.125z M3.5,45.624v-17.5c0-2.066,1.682-3.748,3.75-3.748h20.153c0.001,0,0.002,0,0.003,0
		c0,0,0.001,0,0.002,0H49.75v25H7.251C5.183,49.376,3.5,47.691,3.5,45.624z M21.105,16.875h0.487l3.438,5h-2.967L21.105,16.875z
		 M63.499,45.624c0,2.067-1.683,3.75-3.748,3.75H52.25V24.376h7.501c2.065,0,3.748,1.682,3.748,3.748V45.624z M68.501,31.876
		c0,1.63-1.047,3.018-2.501,3.534v-7.285c0-2.04-0.983-3.855-2.5-4.996v-1.254c0-0.689-0.56-1.25-1.249-1.25
		c-0.69,0-1.25,0.561-1.25,1.25v0.126c-0.404-0.082-0.822-0.126-1.25-0.126H28.063l-4.783-6.958
		c-0.009-0.012-0.019-0.022-0.025-0.033c-0.016-0.021-0.03-0.041-0.046-0.06c-0.015-0.018-0.029-0.033-0.046-0.05
		c-0.012-0.013-0.022-0.026-0.035-0.039c-0.02-0.018-0.037-0.034-0.057-0.051c-0.012-0.01-0.022-0.021-0.035-0.03
		c-0.02-0.015-0.039-0.029-0.06-0.044c-0.014-0.01-0.024-0.02-0.038-0.028c-0.02-0.013-0.039-0.023-0.059-0.035
		c-0.017-0.01-0.032-0.02-0.049-0.028c-0.019-0.009-0.035-0.018-0.054-0.025c-0.021-0.01-0.039-0.019-0.059-0.026
		c-0.017-0.007-0.031-0.011-0.049-0.018c-0.021-0.008-0.044-0.017-0.067-0.022c-0.017-0.004-0.031-0.007-0.047-0.012
		c-0.023-0.007-0.047-0.012-0.07-0.017c-0.019-0.003-0.037-0.007-0.055-0.009c-0.022-0.003-0.044-0.007-0.064-0.009
		c-0.025-0.002-0.052-0.003-0.077-0.004c-0.014,0-0.026-0.002-0.04-0.002h-0.012l0,0h-2.646c-0.018,0-0.032,0.002-0.049,0.002
		c-0.022,0.001-0.046,0.001-0.069,0.003c-0.024,0.002-0.051,0.007-0.076,0.01c-0.014,0.002-0.027,0.003-0.041,0.006
		c-0.002,0-0.004,0.001-0.006,0.002c-0.03,0.006-0.06,0.013-0.087,0.021c-0.012,0.003-0.024,0.005-0.035,0.008
		c-0.025,0.008-0.053,0.018-0.077,0.028c-0.015,0.004-0.028,0.009-0.042,0.015c-0.02,0.008-0.036,0.018-0.056,0.026
		s-0.037,0.018-0.058,0.027c-0.009,0.006-0.019,0.012-0.027,0.018c-0.026,0.015-0.052,0.029-0.076,0.046
		c-0.002,0.001-0.003,0.002-0.004,0.003c-0.064,0.043-0.126,0.094-0.182,0.149c-0.001,0.001-0.002,0.002-0.003,0.003
		c-0.026,0.027-0.054,0.056-0.077,0.085c-0.014,0.019-0.027,0.038-0.042,0.057c-0.01,0.012-0.02,0.024-0.028,0.038
		c-0.02,0.029-0.038,0.06-0.056,0.09c-0.002,0.004-0.005,0.008-0.008,0.013c-0.016,0.028-0.028,0.057-0.042,0.086
		c-0.004,0.008-0.008,0.015-0.011,0.021c-0.01,0.022-0.019,0.047-0.025,0.07c-0.005,0.016-0.013,0.03-0.018,0.045
		c-0.005,0.016-0.01,0.033-0.014,0.05c-0.006,0.022-0.013,0.046-0.019,0.069c-0.002,0.012-0.003,0.023-0.005,0.035
		c-0.006,0.029-0.011,0.06-0.015,0.09c0,0.009,0,0.02-0.002,0.028c-0.002,0.032-0.004,0.064-0.004,0.098
		c0,0.002-0.001,0.003-0.001,0.005c0,0.013,0.002,0.025,0.002,0.038c0.001,0.027,0.001,0.054,0.005,0.08
		c0.001,0.024,0.006,0.049,0.01,0.074c0.002,0.015,0.004,0.028,0.006,0.043l0.003,0.015c0,0.001,0,0.002,0,0.004l1.149,5.995h-3
		l-2.134-2.134c-0.008-0.008-0.018-0.016-0.024-0.023c-0.021-0.021-0.044-0.041-0.065-0.06c-0.017-0.013-0.032-0.024-0.05-0.038
		c-0.017-0.011-0.032-0.023-0.049-0.034c-0.019-0.013-0.037-0.023-0.057-0.035c-0.018-0.01-0.032-0.021-0.05-0.028
		c-0.019-0.01-0.037-0.019-0.057-0.027c-0.019-0.009-0.035-0.018-0.054-0.025c-0.02-0.007-0.036-0.014-0.055-0.02
		c-0.021-0.007-0.041-0.016-0.062-0.021c-0.018-0.005-0.035-0.01-0.053-0.014c-0.021-0.005-0.044-0.011-0.066-0.017
		c-0.02-0.003-0.038-0.005-0.058-0.008c-0.021-0.003-0.042-0.007-0.063-0.01c-0.03-0.003-0.063-0.004-0.095-0.005
		c-0.01,0-0.019-0.001-0.027-0.001s-0.02,0.001-0.028,0.001c-0.031,0.001-0.063,0.002-0.095,0.005
		c-0.021,0.002-0.042,0.006-0.063,0.01c-0.02,0.003-0.039,0.005-0.058,0.008c-0.022,0.006-0.046,0.012-0.066,0.017
		c-0.018,0.004-0.035,0.009-0.053,0.015c-0.021,0.005-0.042,0.015-0.062,0.021c-0.019,0.006-0.036,0.014-0.055,0.02
		c-0.02,0.008-0.035,0.018-0.055,0.025c-0.019,0.009-0.037,0.018-0.056,0.027c-0.018,0.009-0.033,0.02-0.05,0.029
		c-0.02,0.011-0.038,0.021-0.058,0.034c-0.017,0.011-0.031,0.023-0.048,0.034c-0.018,0.014-0.033,0.025-0.05,0.038
		c-0.022,0.019-0.044,0.039-0.065,0.06c-0.008,0.009-0.018,0.016-0.025,0.023s-0.017,0.019-0.024,0.027
		c-0.021,0.021-0.039,0.041-0.059,0.063c-0.014,0.018-0.025,0.036-0.04,0.053c-0.01,0.015-0.021,0.029-0.031,0.045
		c-0.014,0.021-0.024,0.041-0.037,0.062c-0.009,0.015-0.019,0.029-0.025,0.044c-0.012,0.021-0.021,0.041-0.03,0.062
		c-0.008,0.017-0.016,0.033-0.022,0.049c-0.008,0.021-0.016,0.04-0.021,0.061c-0.006,0.019-0.015,0.037-0.021,0.056
		c-0.005,0.021-0.011,0.041-0.016,0.061c-0.004,0.02-0.01,0.038-0.015,0.058c-0.004,0.023-0.007,0.048-0.01,0.072
		c-0.003,0.017-0.006,0.033-0.008,0.05c-0.004,0.041-0.006,0.082-0.006,0.124v1.249H8.501v-7.499c0-2.068,1.682-3.75,3.748-3.75
		h42.5v7.5c0,0.69,0.561,1.25,1.25,1.25c0.69,0,1.251-0.56,1.251-1.25v-7.5h7.498c2.069,0,3.751,1.682,3.751,3.75v17.504H68.501z"/>
	<path fill="#4CB2DB" d="M48.5,15.625H38.499c-0.689,0-1.25,0.56-1.25,1.25s0.561,1.251,1.25,1.251H48.5
		c0.689,0,1.25-0.561,1.25-1.251S49.189,15.625,48.5,15.625z"/>
	<path fill="#4CB2DB" d="M62.25,14.376c-0.69,0-1.25,0.56-1.25,1.25v1.249c0,0.69,0.56,1.251,1.25,1.251
		c0.689,0,1.249-0.561,1.249-1.251v-1.25C63.499,14.935,62.939,14.376,62.25,14.376z"/>
</g>
</svg>
