<?xml version="1.0" encoding="utf-8"?>
<!-- Generator: Adobe Illustrator 16.0.0, SVG Export Plug-In . SVG Version: 6.00 Build 0)  -->
<!DOCTYPE svg PUBLIC "-//W3C//DTD SVG 1.1//EN" "http://www.w3.org/Graphics/SVG/1.1/DTD/svg11.dtd">
<svg version="1.1" id="Слой_1" xmlns="http://www.w3.org/2000/svg" xmlns:xlink="http://www.w3.org/1999/xlink" x="0px" y="0px"
	 width="72px" height="60px" viewBox="0 0 72 60" enable-background="new 0 0 72 60" xml:space="preserve">
<g>
	<path fill="#4CB2DB" d="M18.34,41.616c-1.883,0-3.415,1.533-3.415,3.417c0,1.883,1.532,3.414,3.415,3.414
		c1.884,0,3.416-1.531,3.416-3.414C21.755,43.149,20.224,41.616,18.34,41.616z M18.34,45.963c-0.513,0-0.93-0.417-0.93-0.93
		s0.417-0.932,0.93-0.932c0.513,0,0.931,0.418,0.931,0.932C19.271,45.546,18.853,45.963,18.34,45.963z"/>
	<path fill="#4CB2DB" d="M53.662,41.616c-1.884,0-3.416,1.533-3.416,3.417c0,1.883,1.532,3.414,3.416,3.414
		c1.883,0,3.414-1.531,3.414-3.414C57.076,43.149,55.545,41.616,53.662,41.616z M53.662,45.963c-0.513,0-0.931-0.417-0.931-0.93
		s0.418-0.932,0.931-0.932s0.93,0.418,0.93,0.932C54.594,45.546,54.175,45.963,53.662,45.963z"/>
	<path fill="#4CB2DB" d="M68.425,39.04V27.383V14.686c0-3.954-3.217-7.171-7.172-7.171H14.717c-6.143,0-11.14,4.998-11.14,11.141
		V39.04C2.62,39.758,2,40.902,2,42.188v0.153c0,2.169,1.765,3.933,3.935,3.933h5.057c0.593,3.521,3.662,6.211,7.348,6.211
		s6.755-2.69,7.348-6.211h20.625c0.593,3.521,3.662,6.211,7.349,6.211s6.754-2.69,7.348-6.211h5.058
		c2.169,0,3.934-1.764,3.934-3.933v-0.153C70.002,40.902,69.382,39.758,68.425,39.04z M65.939,26.14h-3.408
		c-0.176,0-0.317-0.142-0.317-0.316v-9.578c0-0.175,0.142-0.316,0.317-0.316h3.408V26.14z M4.485,42.342v-0.153
		c0-0.801,0.65-1.452,1.45-1.452h6.318c-0.632,0.895-1.072,1.932-1.262,3.054H5.935C5.135,43.79,4.485,43.141,4.485,42.342z
		 M18.34,50.002c-2.739,0-4.969-2.229-4.969-4.969c0-2.741,2.229-4.97,4.969-4.97c2.741,0,4.97,2.229,4.97,4.97
		C23.31,47.772,21.081,50.002,18.34,50.002z M46.313,43.79H25.688c-0.593-3.521-3.662-6.212-7.349-6.212
		c-1.103,0-2.148,0.242-3.091,0.676H6.062V18.656c0-4.773,3.883-8.656,8.655-8.656h46.536c2.154,0,3.973,1.461,4.52,3.444h-3.241
		c-1.545,0-2.803,1.257-2.803,2.801v9.579c0,1.545,1.258,2.801,2.803,2.801h3.408v9.627h-9.186c-0.943-0.43-1.989-0.674-3.092-0.674
		C49.976,37.578,46.906,40.27,46.313,43.79z M53.662,50.002c-2.74,0-4.97-2.229-4.97-4.969c0-2.741,2.229-4.97,4.97-4.97
		c2.739,0,4.969,2.229,4.969,4.97C58.631,47.772,56.401,50.002,53.662,50.002z M67.517,42.342c0,0.799-0.648,1.448-1.449,1.448
		h-5.057c-0.189-1.123-0.631-2.159-1.262-3.054h6.318c0.801,0,1.449,0.651,1.449,1.452V42.342z"/>
	<path fill="#4CB2DB" d="M56.063,25.823v-9.578c0-1.544-1.256-2.801-2.802-2.801H15.01c-3.306,0-5.993,2.688-5.993,5.994v6.386
		c0,1.545,1.256,2.801,2.8,2.801h41.447C54.808,28.625,56.063,27.368,56.063,25.823z M33.782,15.929h9.767v10.211h-9.767V15.929z
		 M31.298,26.14h-9.767v-10.21h9.767V26.14z M11.502,25.823v-6.386c0-1.935,1.573-3.509,3.508-3.509h4.036V26.14h-7.229
		C11.643,26.14,11.502,25.998,11.502,25.823z M53.579,25.823c0,0.175-0.143,0.316-0.317,0.316h-7.228v-10.21h7.228
		c0.175,0,0.317,0.142,0.317,0.316V25.823z"/>
	<path fill="#4CB2DB" d="M63.214,36.32c0.687,0,1.241-0.557,1.241-1.242v-1.104c0-0.686-0.556-1.241-1.241-1.241
		s-1.243,0.556-1.243,1.241v1.104C61.97,35.766,62.527,36.32,63.214,36.32z"/>
</g>
</svg>
