<?xml version="1.0" encoding="utf-8"?>
<!-- Generator: Adobe Illustrator 16.0.0, SVG Export Plug-In . SVG Version: 6.00 Build 0)  -->
<!DOCTYPE svg PUBLIC "-//W3C//DTD SVG 1.1//EN" "http://www.w3.org/Graphics/SVG/1.1/DTD/svg11.dtd">
<svg version="1.1" id="Слой_1" xmlns="http://www.w3.org/2000/svg" xmlns:xlink="http://www.w3.org/1999/xlink" x="0px" y="0px"
	 width="72px" height="62.75px" viewBox="0 -1.375 72 62.75" enable-background="new 0 -1.375 72 62.75" xml:space="preserve">
<g>
	<path fill="#4CB2DB" d="M66.173,6.768H49.276V5.561c0-3.328-2.707-6.036-6.035-6.036H28.758c-3.329,0-6.036,2.708-6.036,6.036
		v1.207H5.828C3.166,6.768,1,8.934,1,11.594v41.035c0,2.663,2.166,4.828,4.828,4.828c0,1.664,1.353,3.017,3.016,3.017
		c1.665,0,3.017-1.352,3.017-3.017h48.276c0,1.664,1.354,3.017,3.019,3.017c1.664,0,3.017-1.352,3.017-3.017
		c2.661,0,4.827-2.165,4.827-4.828V11.594C71,8.934,68.834,6.768,66.173,6.768z M25.139,5.561c0-1.996,1.624-3.622,3.621-3.622
		h14.482c1.996,0,3.621,1.625,3.621,3.622v1.207H25.139V5.561z M8.844,58.061c-0.332,0-0.603-0.27-0.603-0.604h1.208
		C9.448,57.791,9.178,58.061,8.844,58.061z M63.156,58.061c-0.334,0-0.605-0.27-0.605-0.604h1.208
		C63.759,57.791,63.488,58.061,63.156,58.061z M68.587,52.629c0,1.332-1.084,2.414-2.414,2.414h-7.187
		c0.382-3.985,2.915-7.444,6.673-8.992c0.617-0.256,0.911-0.959,0.657-1.575c-0.253-0.617-0.96-0.91-1.575-0.656
		c-4.666,1.923-7.789,6.257-8.18,11.224H15.441c-0.391-4.967-3.513-9.301-8.18-11.224c-0.616-0.254-1.321,0.039-1.576,0.656
		c-0.254,0.616,0.04,1.319,0.656,1.575c3.759,1.548,6.291,5.007,6.675,8.992H5.828c-1.332,0-2.414-1.082-2.414-2.414V11.594
		c0-1.33,1.083-2.413,2.414-2.413h7.176c-0.433,3.92-2.951,7.313-6.662,8.841c-0.616,0.254-0.91,0.959-0.656,1.575
		c0.191,0.467,0.641,0.748,1.117,0.748c0.154,0,0.308-0.028,0.459-0.092c4.62-1.902,7.725-6.169,8.166-11.072h41.146
		c0.442,4.902,3.546,9.17,8.167,11.072c0.15,0.063,0.305,0.092,0.459,0.092c0.476,0,0.925-0.281,1.117-0.748
		c0.254-0.616-0.041-1.321-0.657-1.575c-3.711-1.528-6.228-4.921-6.661-8.842h7.177c1.329,0,2.413,1.083,2.413,2.414v41.035H68.587z
		"/>
	<path fill="#4CB2DB" d="M26.834,35.044c-0.63,0.216-0.966,0.903-0.75,1.533c0.173,0.502,0.26,1.031,0.26,1.569
		c0,2.662-2.165,4.827-4.828,4.827c-2.662,0-4.828-2.165-4.828-4.827c0-2.663,2.166-4.828,4.828-4.828
		c0.627,0,1.236,0.119,1.81,0.352c0.618,0.25,1.321-0.049,1.573-0.665c0.25-0.618-0.049-1.322-0.666-1.573
		c-0.865-0.349-1.777-0.525-2.716-0.525c-3.993,0-7.24,3.248-7.24,7.24c0,3.991,3.247,7.241,7.24,7.241
		c3.994,0,7.242-3.25,7.242-7.241c0-0.806-0.132-1.597-0.391-2.353C28.151,35.165,27.464,34.827,26.834,35.044z"/>
	<path fill="#4CB2DB" d="M54.182,32.869c-0.25-0.617-0.952-0.918-1.57-0.67l-2.238,0.902c-0.619,0.25-0.92,0.952-0.671,1.57
		c0.25,0.62,0.952,0.919,1.571,0.668l1.118-0.448l2.706,6.715l-11.195,4.507l-2.705-6.715l5.599-2.254
		c0.618-0.249,0.917-0.954,0.667-1.571c-0.249-0.618-0.953-0.919-1.569-0.668l-6.719,2.704c-0.296,0.117-0.533,0.353-0.66,0.646
		c-0.124,0.293-0.129,0.627-0.008,0.924l3.604,8.957c0.19,0.47,0.643,0.756,1.12,0.756c0.15,0,0.303-0.028,0.45-0.09l13.435-5.407
		c0.618-0.249,0.917-0.951,0.669-1.571L54.182,32.869z"/>
	<path fill="#4CB2DB" d="M24.158,24.037l18.093,6.747c0.137,0.05,0.279,0.074,0.423,0.074c0.171,0,0.342-0.034,0.5-0.109
		c0.295-0.131,0.52-0.376,0.632-0.677l2.529-6.784c0.111-0.3,0.1-0.632-0.034-0.923c-0.133-0.292-0.376-0.52-0.677-0.63
		l-2.261-0.843c-0.622-0.233-1.32,0.084-1.553,0.709s0.086,1.319,0.709,1.552l1.133,0.422l-1.687,4.525l-15.833-5.904l1.687-4.523
		l10.178,3.794c0.622,0.233,1.319-0.084,1.553-0.709c0.231-0.624-0.085-1.319-0.709-1.552L27.532,14.99
		c-0.3-0.112-0.632-0.1-0.924,0.033c-0.291,0.132-0.516,0.377-0.629,0.676l-2.53,6.786c-0.112,0.298-0.101,0.632,0.034,0.923
		C23.614,23.699,23.857,23.925,24.158,24.037z"/>
</g>
</svg>
