<?xml version="1.0" encoding="utf-8"?>
<!-- Generator: Adobe Illustrator 16.0.0, SVG Export Plug-In . SVG Version: 6.00 Build 0)  -->
<!DOCTYPE svg PUBLIC "-//W3C//DTD SVG 1.1//EN" "http://www.w3.org/Graphics/SVG/1.1/DTD/svg11.dtd">
<svg version="1.1" id="Слой_1" xmlns="http://www.w3.org/2000/svg" xmlns:xlink="http://www.w3.org/1999/xlink" x="0px" y="0px"
	 width="72px" height="60px" viewBox="0 0 72 60" enable-background="new 0 0 72 60" xml:space="preserve">
<g>
	<path fill="#4CB2DB" d="M54.643,1H17.357c-2.855,0-5.178,2.323-5.178,5.179v47.644c0,2.854,2.323,5.178,5.178,5.178h37.286
		c2.855,0,5.179-2.323,5.179-5.178V6.179C59.821,3.323,57.498,1,54.643,1z M57.75,53.822c0,1.713-1.394,3.107-3.107,3.107H17.357
		c-1.713,0-3.107-1.395-3.107-3.107V6.179c0-1.713,1.394-3.107,3.107-3.107h37.286c1.712,0,3.107,1.394,3.107,3.107V53.822z"/>
	<path fill="#4CB2DB" d="M36,9.286c-7.996,0-14.5,6.505-14.5,14.5c0,7.997,6.504,14.5,14.5,14.5s14.5-6.503,14.5-14.5
		C50.5,15.79,43.996,9.286,36,9.286z M47.298,28.965H43.76c0.275-1.298,0.451-2.687,0.506-4.143h4.12
		C48.265,26.289,47.887,27.686,47.298,28.965z M24.703,18.607h3.538c-0.276,1.298-0.45,2.689-0.505,4.143h-4.12
		C23.736,21.282,24.113,19.887,24.703,18.607z M31.857,16.536h-0.866c0.945-2.573,2.363-4.43,3.974-4.997V22.75h-5.157
		c0.063-1.46,0.26-2.857,0.563-4.143h1.485c0.573,0,1.036-0.462,1.036-1.036C32.893,17,32.429,16.536,31.857,16.536z M41.011,16.536
		h-3.975v-4.997C38.646,12.105,40.065,13.963,41.011,16.536z M23.615,24.821h4.12c0.056,1.458,0.231,2.845,0.505,4.143h-3.538
		C24.113,27.686,23.736,26.289,23.615,24.821z M29.809,24.821h5.156v4.143h-4.592C30.068,27.681,29.873,26.283,29.809,24.821z
		 M34.964,31.035v4.998c-1.611-0.567-3.03-2.425-3.974-4.998H34.964z M37.033,36.033v-4.998h3.976
		C40.065,33.608,38.646,35.466,37.033,36.033z M37.033,28.965V18.607h4.593c0.305,1.287,0.503,2.684,0.564,4.143h-2.048
		c-0.572,0-1.035,0.464-1.035,1.036c0,0.573,0.463,1.036,1.035,1.036h2.048c-0.062,1.462-0.26,2.859-0.563,4.143L37.033,28.965
		L37.033,28.965z M44.264,22.75c-0.055-1.455-0.229-2.846-0.504-4.143h3.538c0.587,1.28,0.967,2.675,1.088,4.143H44.264z
		 M46.09,16.536h-2.879c-0.497-1.535-1.15-2.888-1.923-3.996C43.207,13.446,44.858,14.83,46.09,16.536z M30.714,12.54
		c-0.775,1.108-1.426,2.46-1.924,3.996h-2.878C27.141,14.83,28.793,13.446,30.714,12.54z M25.911,31.035h2.878
		c0.498,1.536,1.15,2.889,1.924,3.996C28.793,34.125,27.141,32.743,25.911,31.035z M41.286,35.031
		c0.774-1.107,1.428-2.46,1.925-3.996h2.879C44.858,32.743,43.207,34.125,41.286,35.031z"/>
	<path fill="#4CB2DB" d="M49.205,43.467h-26.67c-0.57,0-1.035,0.461-1.035,1.034s0.464,1.034,1.035,1.034h26.67
		c0.572,0,1.036-0.461,1.036-1.034S49.777,43.467,49.205,43.467z"/>
	<path fill="#4CB2DB" d="M31.987,47.608h-5.308c-0.572,0-1.036,0.462-1.036,1.035c0,0.571,0.464,1.036,1.036,1.036h5.308
		c0.573,0,1.036-0.465,1.036-1.036C33.022,48.07,32.558,47.608,31.987,47.608z"/>
	<path fill="#4CB2DB" d="M45.321,47.608H36c-0.573,0-1.036,0.462-1.036,1.035c0,0.571,0.463,1.036,1.036,1.036h9.321
		c0.572,0,1.036-0.465,1.036-1.036C46.357,48.07,45.894,47.608,45.321,47.608z"/>
</g>
</svg>
